<svg width="25" height="24" viewBox="0 0 25 24" fill="none" xmlns="http://www.w3.org/2000/svg">
<path d="M8.24321 13.2H6.44321C6.11171 13.2 5.84321 13.4685 5.84321 13.8V21C5.84321 21.3315 6.11171 21.6 6.44321 21.6H8.24321C8.57471 21.6 8.84321 21.3315 8.84321 21V13.8C8.84321 13.4685 8.57471 13.2 8.24321 13.2ZM3.44321 16.8H1.64321C1.31171 16.8 1.04321 17.0685 1.04321 17.4V21C1.04321 21.3315 1.31171 21.6 1.64321 21.6H3.44321C3.77471 21.6 4.04321 21.3315 4.04321 21V17.4C4.04321 17.0685 3.77471 16.8 3.44321 16.8ZM13.0432 9.60002H11.2432C10.9117 9.60002 10.6432 9.86852 10.6432 10.2V21C10.6432 21.3315 10.9117 21.6 11.2432 21.6H13.0432C13.3747 21.6 13.6432 21.3315 13.6432 21V10.2C13.6432 9.86852 13.3747 9.60002 13.0432 9.60002ZM17.8432 6.00002H16.0432C15.7117 6.00002 15.4432 6.26852 15.4432 6.60002V21C15.4432 21.3315 15.7117 21.6 16.0432 21.6H17.8432C18.1747 21.6 18.4432 21.3315 18.4432 21V6.60002C18.4432 6.26852 18.1747 6.00002 17.8432 6.00002ZM22.6432 2.40002H20.8432C20.5117 2.40002 20.2432 2.66852 20.2432 3.00002V21C20.2432 21.3315 20.5117 21.6 20.8432 21.6H22.6432C22.9747 21.6 23.2432 21.3315 23.2432 21V3.00002C23.2432 2.66852 22.9747 2.40002 22.6432 2.40002Z" fill="white"/>
</svg>
